<?xml version="1.0" encoding="UTF-8" standalone="no"?><svg xmlns="http://www.w3.org/2000/svg" xmlns:xlink="http://www.w3.org/1999/xlink" contentStyleType="text/css" height="1174px" preserveAspectRatio="none" style="width:2120px;height:1174px;background:#FFFFFF;" version="1.1" viewBox="0 0 2120 1174" width="2120px" zoomAndPan="magnify"><defs/><g>
<g id="cluster_已编码"><path d="M1137.5,786 L2032,786 A12.5,12.5 0 0 1 2044.5,798.5 L2044.5,812.4883 L1125,812.4883 L1125,798.5 A12.5,12.5 0 0 1 1137.5,786 " fill="#F1F1F1" style="stroke:#F1F1F1;stroke-width:1.0;"/><rect fill="none" height="174" rx="12.5" ry="12.5" style="stroke:#181818;stroke-width:0.5;" width="919.5" x="1125" y="786"/><line style="stroke:#181818;stroke-width:0.5;" x1="1125" x2="2044.5" y1="812.4883" y2="812.4883"/><text fill="#000000" font-family="sans-serif" font-size="14" lengthAdjust="spacing" textLength="42" x="1563.75" y="803.5352">已编码</text></g>
<g id="cluster_Android数据容器"><path d="M670,7 L1741.5,7 A12.5,12.5 0 0 1 1754,19.5 L1754,33.4883 L657.5,33.4883 L657.5,19.5 A12.5,12.5 0 0 1 670,7 " fill="#F1F1F1" style="stroke:#F1F1F1;stroke-width:1.0;"/><rect fill="none" height="771" rx="12.5" ry="12.5" style="stroke:#181818;stroke-width:0.5;" width="1096.5" x="657.5" y="7"/><line style="stroke:#181818;stroke-width:0.5;" x1="657.5" x2="1754" y1="33.4883" y2="33.4883"/><text fill="#000000" font-family="sans-serif" font-size="14" lengthAdjust="spacing" textLength="112" x="1149.75" y="24.5352">Android数据容器</text></g>
<g id="cluster_支持序列化的Java对象"><path d="M19.5,994 L1661.5,994 A12.5,12.5 0 0 1 1674,1006.5 L1674,1020.4883 L7,1020.4883 L7,1006.5 A12.5,12.5 0 0 1 19.5,994 " fill="#F1F1F1" style="stroke:#F1F1F1;stroke-width:1.0;"/><rect fill="none" height="174" rx="12.5" ry="12.5" style="stroke:#181818;stroke-width:0.5;" width="1667" x="7" y="994"/><line style="stroke:#181818;stroke-width:0.5;" x1="7" x2="1674" y1="1020.4883" y2="1020.4883"/><text fill="#000000" font-family="sans-serif" font-size="14" lengthAdjust="spacing" textLength="139" x="771" y="1011.5352">支持序列化的Java对象</text></g><g id="已编码.bytes"><rect fill="#F1F1F1" height="52.9766" rx="12.5" ry="12.5" style="stroke:#181818;stroke-width:0.5;" width="132" x="1133" y="880.5"/><line style="stroke:#181818;stroke-width:0.5;" x1="1133" x2="1265" y1="906.9883" y2="906.9883"/><text fill="#000000" font-family="sans-serif" font-size="14" lengthAdjust="spacing" textLength="39" x="1179.5" y="899.0352">byte[]</text><text fill="#000000" font-family="sans-serif" font-size="14" lengthAdjust="spacing" textLength="112" x="1138" y="925.5234">经过编码的字节流</text></g><g id="已编码.b64"><rect fill="#F1F1F1" height="52.9766" rx="12.5" ry="12.5" style="stroke:#181818;stroke-width:0.5;" width="153" x="1883.5" y="851.5"/><line style="stroke:#181818;stroke-width:0.5;" x1="1883.5" x2="2036.5" y1="877.9883" y2="877.9883"/><text fill="#000000" font-family="sans-serif" font-size="14" lengthAdjust="spacing" textLength="49" x="1935.5" y="870.0352">Base64</text><text fill="#000000" font-family="sans-serif" font-size="14" lengthAdjust="spacing" textLength="133" x="1888.5" y="896.5234">Base64编码的字符串</text></g><g id="Android数据容器.parcel"><rect fill="#F1F1F1" height="52.9766" rx="12.5" ry="12.5" style="stroke:#181818;stroke-width:0.5;" width="172" x="665.5" y="453.5"/><line style="stroke:#181818;stroke-width:0.5;" x1="665.5" x2="837.5" y1="479.9883" y2="479.9883"/><text fill="#000000" font-family="sans-serif" font-size="14" lengthAdjust="spacing" textLength="41" x="731" y="472.0352">Parcel</text><text fill="#000000" font-family="sans-serif" font-size="14" lengthAdjust="spacing" textLength="152" x="670.5" y="498.5234">Android IPC的数据容器</text></g><g id="Android数据容器.parcelable"><rect fill="#F1F1F1" height="52.9766" rx="12.5" ry="12.5" style="stroke:#181818;stroke-width:0.5;" width="222" x="1515" y="162.5"/><line style="stroke:#181818;stroke-width:0.5;" x1="1515" x2="1737" y1="188.9883" y2="188.9883"/><text fill="#000000" font-family="sans-serif" font-size="14" lengthAdjust="spacing" textLength="70" x="1591" y="181.0352">Parcelable</text><text fill="#000000" font-family="sans-serif" font-size="14" lengthAdjust="spacing" textLength="202" x="1520" y="207.5234">POJO通过实现本接口支持序列化</text></g><g id="Android数据容器.bundle"><rect fill="#F1F1F1" height="69.4648" rx="12.5" ry="12.5" style="stroke:#181818;stroke-width:0.5;" width="240" x="1506" y="547.5"/><line style="stroke:#181818;stroke-width:0.5;" x1="1506" x2="1746" y1="573.9883" y2="573.9883"/><text fill="#000000" font-family="sans-serif" font-size="14" lengthAdjust="spacing" textLength="47" x="1602.5" y="566.0352">Bundle</text><text fill="#000000" font-family="sans-serif" font-size="14" lengthAdjust="spacing" textLength="210" x="1511" y="592.5234">实现了Parcelable接口的数据容器</text><text fill="#000000" font-family="sans-serif" font-size="14" lengthAdjust="spacing" textLength="220" x="1511" y="609.0117">可以容纳内置内型和其他Parcelabe</text></g><g id="支持序列化的Java对象.str"><rect fill="#F1F1F1" height="52.9766" rx="12.5" ry="12.5" style="stroke:#181818;stroke-width:0.5;" width="160" x="15" y="1021.5"/><line style="stroke:#181818;stroke-width:0.5;" x1="15" x2="175" y1="1047.9883" y2="1047.9883"/><text fill="#000000" font-family="sans-serif" font-size="14" lengthAdjust="spacing" textLength="41" x="74.5" y="1040.0352">String</text><text fill="#000000" font-family="sans-serif" font-size="14" lengthAdjust="spacing" textLength="140" x="20" y="1066.5234">可读、有含义的字符串</text></g><g id="支持序列化的Java对象.json"><rect fill="#F1F1F1" height="52.9766" rx="12.5" ry="12.5" style="stroke:#181818;stroke-width:0.5;" width="181" x="661" y="1059.5"/><line style="stroke:#181818;stroke-width:0.5;" x1="661" x2="842" y1="1085.9883" y2="1085.9883"/><text fill="#000000" font-family="sans-serif" font-size="14" lengthAdjust="spacing" textLength="77" x="713" y="1078.0352">JSONObject</text><text fill="#000000" font-family="sans-serif" font-size="14" lengthAdjust="spacing" textLength="161" x="666" y="1104.5234">android.jar的org.json包</text></g><g id="支持序列化的Java对象.proto"><rect fill="#F1F1F1" height="50" rx="12.5" ry="12.5" style="stroke:#181818;stroke-width:0.5;" width="80" x="1586" y="1021"/><line style="stroke:#181818;stroke-width:0.5;" x1="1586" x2="1666" y1="1047.4883" y2="1047.4883"/><text fill="#000000" font-family="sans-serif" font-size="14" lengthAdjust="spacing" textLength="60" x="1596" y="1039.5352">Protobuf</text></g><g id="elem_N1"><path d="M236,444.5 L236,515.7422 A0,0 0 0 0 236,515.7422 L505,515.7422 A0,0 0 0 0 505,515.7422 L505,484 L665.4556,480 L505,476 L505,454.5 L495,444.5 L236,444.5 A0,0 0 0 0 236,444.5 " fill="#FEFFDD" style="stroke:#181818;stroke-width:0.5;"/><path d="M495,444.5 L495,454.5 L505,454.5 L495,444.5 " fill="#FEFFDD" style="stroke:#181818;stroke-width:0.5;"/><text fill="#000000" font-family="sans-serif" font-size="13" lengthAdjust="spacing" textLength="155" x="242" y="462.0684">Parcel在交出去read之前，</text><text fill="#000000" font-family="sans-serif" font-size="13" lengthAdjust="spacing" textLength="78" x="242" y="477.3789">一定要先调用</text><text fill="#000000" font-family="sans-serif" font-size="13" lengthAdjust="spacing" textLength="169" x="242" y="492.6895">Parcel.setDataPosition(0)，</text><text fill="#000000" font-family="sans-serif" font-size="13" lengthAdjust="spacing" textLength="232" x="242" y="508">否则无法正确读出Parcel对象中的数据。</text></g><g id="elem_N2"><path d="M1807,168.5 L1807,185 L1737.2172,189 L1807,193 L1807,209.1211 A0,0 0 0 0 1807,209.1211 L2113,209.1211 A0,0 0 0 0 2113,209.1211 L2113,178.5 L2103,168.5 L1807,168.5 A0,0 0 0 0 1807,168.5 " fill="#FEFFDD" style="stroke:#181818;stroke-width:0.5;"/><path d="M2103,168.5 L2103,178.5 L2113,178.5 L2103,168.5 " fill="#FEFFDD" style="stroke:#181818;stroke-width:0.5;"/><text fill="#000000" font-family="sans-serif" font-size="13" lengthAdjust="spacing" textLength="269" x="1813" y="186.0684">Parcelable与Parcel的转换方法最好配套使用，</text><text fill="#000000" font-family="sans-serif" font-size="13" lengthAdjust="spacing" textLength="130" x="1813" y="201.3789">可结合源码理解差异。</text></g><g id="elem_N3"><path d="M1837,561.5 L1837,578 L1746.1098,582 L1837,586 L1837,602.1211 A0,0 0 0 0 1837,602.1211 L2083,602.1211 A0,0 0 0 0 2083,602.1211 L2083,571.5 L2073,561.5 L1837,561.5 A0,0 0 0 0 1837,561.5 " fill="#FEFFDD" style="stroke:#181818;stroke-width:0.5;"/><path d="M2073,561.5 L2073,571.5 L2083,571.5 L2073,561.5 " fill="#FEFFDD" style="stroke:#181818;stroke-width:0.5;"/><text fill="#000000" font-family="sans-serif" font-size="13" lengthAdjust="spacing" textLength="209" x="1843" y="579.0684">Android为Bundle提供了特殊处理，</text><text fill="#000000" font-family="sans-serif" font-size="13" lengthAdjust="spacing" textLength="169" x="1843" y="594.3789">各套读写方法似乎可以混用。</text></g>
<g id="link_bytes_b64"><path d="M1265.2319,905.5614 C1369.316,903.1675 1577.5223,897.8414 1754,890 C1794.9304,888.1813 1840.403,885.5927 1878.1907,883.285 " fill="none" id="bytes-to-b64" style="stroke:#181818;stroke-width:1.0;"/><polygon fill="#181818" points="1883.2329,882.976,1874.005,879.5343,1878.2423,883.282,1874.4946,887.5193,1883.2329,882.976" style="stroke:#181818;stroke-width:1.0;"/><text fill="#000000" font-family="sans-serif" font-size="13" lengthAdjust="spacing" textLength="166" x="1543" y="886.5684">Base64.encodeToString(...)</text></g>
<g id="link_b64_bytes"><path d="M1883.2332,873.8489 C1844.4958,871.9569 1796.7684,869.9338 1754,869 C1643.804,866.594 1616.0133,862.2172 1506,869 C1424.9256,873.9986 1332.4895,886.355 1270.4167,895.6302 " fill="none" id="b64-to-bytes" style="stroke:#181818;stroke-width:1.0;"/><polygon fill="#181818" points="1265.2546,896.4049,1274.7486,899.0248,1270.1992,895.6628,1273.5612,891.1134,1265.2546,896.4049" style="stroke:#181818;stroke-width:1.0;"/><text fill="#000000" font-family="sans-serif" font-size="13" lengthAdjust="spacing" textLength="113" x="1569.5" y="862.5684">Base64.decode(...)</text></g>
<g id="link_str_bytes"><path d="M175.2862,1037.7461 C382.2234,1011.3166 931.2707,941.1937 1127.7906,916.0947 " fill="none" id="str-to-bytes" style="stroke:#181818;stroke-width:1.0;"/><polygon fill="#181818" points="1132.9346,915.4377,1123.5004,912.6101,1127.9749,916.0711,1124.5139,920.5456,1132.9346,915.4377" style="stroke:#181818;stroke-width:1.0;"/><text fill="#000000" font-family="sans-serif" font-size="13" lengthAdjust="spacing" textLength="94" x="536" y="975.5684">str.getBytes(...)</text></g>
<g id="link_bytes_str"><path d="M1132.8752,908.4246 C1066.7875,910.0843 962.2917,913.3481 872,919 C588.3244,936.7569 510.396,911.8783 236,986 C206.5931,993.9436 175.4394,1007.0934 149.9156,1019.2436 " fill="none" id="bytes-to-str" style="stroke:#181818;stroke-width:1.0;"/><polygon fill="#181818" points="145.217,1021.4992,155.0616,1021.2103,149.7245,1019.3354,151.5995,1013.9983,145.217,1021.4992" style="stroke:#181818;stroke-width:1.0;"/><text fill="#000000" font-family="sans-serif" font-size="13" lengthAdjust="spacing" textLength="86" x="540" y="924.5684">new String(...)</text></g>
<g id="link_bytes_parcel"><path d="M1158.3659,880.438 C1126.0557,860.3236 1079.1089,833.2918 1035,816 C965.552,788.7747 928.4515,824.7593 872,776 C790.7259,705.8004 763.4664,572.5408 755.0038,511.7101 " fill="none" id="bytes-to-parcel" style="stroke:#181818;stroke-width:1.0;"/><polygon fill="#181818" points="754.3339,506.7545,751.576,516.2093,755.0039,511.7094,759.5038,515.1373,754.3339,506.7545" style="stroke:#181818;stroke-width:1.0;"/><text fill="#000000" font-family="sans-serif" font-size="13" lengthAdjust="spacing" textLength="136" x="885.5" y="757.5684">parcel.unmarshall(...);</text><text fill="#000000" font-family="sans-serif" font-size="13" lengthAdjust="spacing" textLength="161" x="873" y="772.8789">parcel.setDataPosition(0);</text></g>
<g id="link_parcel_bytes"><path d="M756.7944,506.5972 C772.3478,582.0738 820.0827,795.106 872,841 C874.4179,843.1374 1032.1092,874.3167 1127.5982,893.0443 " fill="none" id="parcel-to-bytes" style="stroke:#181818;stroke-width:1.0;"/><polygon fill="#181818" points="1132.6629,894.0374,1124.6008,888.3803,1127.7563,893.0753,1123.0614,896.2308,1132.6629,894.0374" style="stroke:#181818;stroke-width:1.0;"/><text fill="#000000" font-family="sans-serif" font-size="13" lengthAdjust="spacing" textLength="104" x="901.5" y="837.5684">parcel.marshall()</text></g>
<g id="link_parcelable_parcel"><path d="M1524.3113,162.4316 C1367.4872,127.9137 1064.62,87.6841 872,231 C799.4008,285.0163 768.3925,394.4089 757.0805,448.399 " fill="none" id="parcelable-to-parcel" style="stroke:#181818;stroke-width:1.0;"/><polygon fill="#181818" points="756.0466,453.4472,761.7714,445.433,757.05,448.5489,753.9341,443.8276,756.0466,453.4472" style="stroke:#181818;stroke-width:1.0;"/><text fill="#000000" font-family="sans-serif" font-size="13" lengthAdjust="spacing" textLength="192" x="1103" y="126.5684">2: parcelable.writeToParcel(...);</text></g>
<g id="link_parcelable_parcel"><path d="M1556.7588,162.4806 C1531.5573,153.3757 1502.7028,143.5792 1476,136 C1299.7755,85.9814 1244.6612,69.2397 1065,105 C973.9316,123.1265 937.4887,119.1725 872,185 C797.007,260.3809 766.6982,388.8552 756.249,448.2103 " fill="none" id="parcelable-to-parcel-1" style="stroke:#181818;stroke-width:1.0;"/><polygon fill="#181818" points="755.3564,453.3923,760.826,445.2019,756.2051,448.4649,752.9421,443.8439,755.3564,453.3923" style="stroke:#181818;stroke-width:1.0;"/><text fill="#000000" font-family="sans-serif" font-size="13" lengthAdjust="spacing" textLength="172" x="1113" y="82.5684">1: parcel.writeParcelable(...)</text></g>
<g id="link_parcel_parcelable"><path d="M837.8239,459.2372 C952.3497,430.8472 1160.1946,376.3814 1333,315 C1414.9636,285.8861 1506.6593,245.0603 1565.283,217.8574 " fill="none" id="parcel-to-parcelable" style="stroke:#181818;stroke-width:1.0;"/><polygon fill="#181818" points="1570.1478,215.5961,1560.3004,215.7627,1565.6137,217.7038,1563.6726,223.0172,1570.1478,215.5961" style="stroke:#181818;stroke-width:1.0;"/><text fill="#000000" font-family="sans-serif" font-size="13" lengthAdjust="spacing" textLength="177" x="1110.5" y="296.5684">1: parcel.setDataPosition(0);</text><text fill="#000000" font-family="sans-serif" font-size="13" lengthAdjust="spacing" textLength="172" x="1113" y="311.8789">parcel.readParcelable&lt;T&gt;();</text></g>
<g id="link_parcel_parcelable"><path d="M782.9302,453.4608 C836.8319,409.4897 952.0459,322.1105 1065,279 C1211.9942,222.8977 1393.599,201.7672 1509.6213,193.8087 " fill="none" id="parcel-to-parcelable-1" style="stroke:#181818;stroke-width:1.0;"/><polygon fill="#181818" points="1514.7519,193.4624,1505.503,190.0776,1509.7633,193.7991,1506.0417,198.0594,1514.7519,193.4624" style="stroke:#181818;stroke-width:1.0;"/><text fill="#000000" font-family="sans-serif" font-size="13" lengthAdjust="spacing" textLength="177" x="1110.5" y="195.5684">2: parcel.setDataPosition(0);</text><text fill="#000000" font-family="sans-serif" font-size="13" lengthAdjust="spacing" textLength="232" x="1083" y="210.8789">T.CREATOR.createFromParcel(parcel);</text></g>
<g id="link_bundle_parcel"><path d="M1546.7036,547.4152 C1524.1312,538.358 1499.3332,529.141 1476,522 C1256.6913,454.8817 982.9473,461.9791 843.0702,471.6834 " fill="none" id="bundle-to-parcel" style="stroke:#181818;stroke-width:1.0;"/><polygon fill="#181818" points="837.7412,472.0588,847.0002,475.4161,842.7288,471.7072,846.4377,467.4359,837.7412,472.0588" style="stroke:#181818;stroke-width:1.0;"/><text fill="#000000" font-family="sans-serif" font-size="13" lengthAdjust="spacing" textLength="135" x="1131.5" y="462.5684">parcel.writeBundle(...)</text></g>
<g id="link_parcel_bundle"><path d="M798.7231,506.5893 C858.4787,538.4113 965.6182,589.477 1065,606 C1213.2935,630.655 1386.4917,616.8985 1500.782,602.0605 " fill="none" id="parcel-to-bundle" style="stroke:#181818;stroke-width:1.0;"/><polygon fill="#181818" points="1505.8398,601.3981,1496.3966,598.6007,1500.8821,602.0474,1497.4354,606.5329,1505.8398,601.3981" style="stroke:#181818;stroke-width:1.0;"/><text fill="#000000" font-family="sans-serif" font-size="13" lengthAdjust="spacing" textLength="161" x="1118.5" y="587.5684">parcel.setDataPosition(0);</text><text fill="#000000" font-family="sans-serif" font-size="13" lengthAdjust="spacing" textLength="123" x="1137.5" y="602.8789">parcel.readBundle();</text></g>
<g id="link_parcel_bundle"><path d="M837.8122,494.5457 C900.6802,504.8154 987.9591,518.4019 1065,528 C1214.4892,546.624 1387.0804,562.3782 1500.9166,571.9782 " fill="none" id="parcel-to-bundle-1" style="stroke:#181818;stroke-width:1.0;"/><polygon fill="#181818" points="1505.9543,572.4023,1497.3217,567.6612,1500.9719,571.9827,1496.6504,575.633,1505.9543,572.4023" style="stroke:#181818;stroke-width:1.0;"/><text fill="#000000" font-family="sans-serif" font-size="13" lengthAdjust="spacing" textLength="161" x="1118.5" y="509.5684">parcel.setDataPosition(0);</text><text fill="#000000" font-family="sans-serif" font-size="13" lengthAdjust="spacing" textLength="193" x="1102.5" y="524.8789">bundle.readFromParcel(parcel);</text></g>
<g id="link_parcel_bundle"><path d="M769.8531,506.6996 C791.1304,535.6413 828.8511,581.1453 872,607 C948.3038,652.7211 976.8441,648.1157 1065,660 C1183.0433,675.9135 1214.7933,674.6506 1333,660 C1398.041,651.9388 1412.6611,640.837 1476,624 C1484.0081,621.8712 1492.2481,619.6504 1500.5497,617.39 " fill="none" id="parcel-to-bundle-2" style="stroke:#181818;stroke-width:1.0;"/><polygon fill="#181818" points="1505.7251,615.9779,1495.9896,614.488,1500.9014,617.294,1498.0954,622.2059,1505.7251,615.9779" style="stroke:#181818;stroke-width:1.0;"/><text fill="#000000" font-family="sans-serif" font-size="13" lengthAdjust="spacing" textLength="161" x="1118.5" y="641.5684">parcel.setDataPosition(0);</text><text fill="#000000" font-family="sans-serif" font-size="13" lengthAdjust="spacing" textLength="266" x="1066" y="656.8789">Bundle.CREATOR.createFromParcel(parcel);</text></g>
<g id="link_str_json"><path d="M155.5513,1074.5736 C180.0301,1083.957 208.8676,1093.3317 236,1098 C380.6719,1122.8917 551.5178,1110.9708 655.6458,1099.1848 " fill="none" id="str-to-json" style="stroke:#181818;stroke-width:1.0;"/><polygon fill="#181818" points="660.862,1098.5882,651.4658,1095.6367,655.8944,1099.1563,652.3748,1103.5849,660.862,1098.5882" style="stroke:#181818;stroke-width:1.0;"/><text fill="#000000" font-family="sans-serif" font-size="13" lengthAdjust="spacing" textLength="126" x="307.5" y="1094.5684">new JSONObject(str)</text></g>
<g id="link_json_str"><path d="M660.7599,1080.7477 C533.671,1073.3915 304.346,1060.1175 180.2697,1052.9356 " fill="none" id="json-to-str" style="stroke:#181818;stroke-width:1.0;"/><polygon fill="#181818" points="175.1714,1052.6405,183.925,1057.1543,180.163,1052.9296,184.3877,1049.1677,175.1714,1052.6405" style="stroke:#181818;stroke-width:1.0;"/><text fill="#000000" font-family="sans-serif" font-size="13" lengthAdjust="spacing" textLength="89" x="326" y="1052.5684">json.toString()</text></g>
<g id="link_proto_bytes"><path d="M1585.7017,1043.249 C1533.1325,1038.7011 1438.915,1027.2393 1363,1000 C1350.9369,995.6716 1292.2489,961.8295 1248.5016,936.2068 " fill="none" id="proto-to-bytes" style="stroke:#181818;stroke-width:1.0;"/><polygon fill="#181818" points="1244.0497,933.5975,1249.7917,941.5993,1248.3634,936.1258,1253.8369,934.6974,1244.0497,933.5975" style="stroke:#181818;stroke-width:1.0;"/><text fill="#000000" font-family="sans-serif" font-size="13" lengthAdjust="spacing" textLength="111" x="1364" y="996.5684">msg.toByteArray()</text></g>
<g id="link_bytes_proto"><path d="M1265.1198,920.937 C1321.8227,933.6561 1405.313,954.2187 1476,979 C1512.2789,991.7186 1551.9381,1009.6179 1581.3607,1023.7166 " fill="none" id="bytes-to-proto" style="stroke:#181818;stroke-width:1.0;"/><polygon fill="#181818" points="1585.9929,1025.9454,1579.6173,1018.4386,1581.4874,1023.7774,1576.1485,1025.6475,1585.9929,1025.9454" style="stroke:#181818;stroke-width:1.0;"/><text fill="#000000" font-family="sans-serif" font-size="13" lengthAdjust="spacing" textLength="98" x="1370.5" y="940.5684">T.parseFrom(...)</text></g>
<g id="link_proto_json"><path d="M1585.6625,1047.8451 C1454.4121,1053.8485 1037.0685,1072.938 847.1989,1081.6227 " fill="none" id="proto-to-json" style="stroke:#181818;stroke-width:1.0;"/><polygon fill="#181818" points="842.2022,1081.8512,851.3756,1085.4356,847.197,1081.6226,851.0099,1077.444,842.2022,1081.8512" style="stroke:#181818;stroke-width:1.0;"/><text fill="#000000" font-family="sans-serif" font-size="13" lengthAdjust="spacing" textLength="179" x="1109.5" y="1055.5684">JsonFormat.printer().print(...)</text></g>
<g id="link_json_proto"><path d="M842.3428,1093.2583 C956.9387,1101.106 1159.9518,1110.6593 1333,1096 C1421.5952,1088.4949 1523.6595,1068.4428 1580.9294,1056.1329 " fill="none" id="json-to-proto" style="stroke:#181818;stroke-width:1.0;"/><polygon fill="#181818" points="1585.9908,1055.04,1576.3493,1053.0299,1581.1035,1056.0954,1578.0379,1060.8496,1585.9908,1055.04" style="stroke:#181818;stroke-width:1.0;"/><text fill="#000000" font-family="sans-serif" font-size="13" lengthAdjust="spacing" textLength="185" x="1106.5" y="1092.5684">JsonFormat.parser().merge(...)</text></g>
</g></svg>